# xmcd
#
# Track frame offsets:
#	150
#	21265
#	40575
#	58210
#	75775
#	95915
#	116645
#	138017
#	159432
#	182542
#	200967
#
# Disc length: 2972 seconds
#
# Revision: 1
# Processed by: cddbd v1.5.1PL0 Copyright (c) Steve Scherf et al.
# Submitted via: EasyCDDAExtractor 7.0.4.1
#
DISCID=8c0b9a0b
DTITLE=King Floyd - Old Skool Funk
DYEAR=2000
DGENRE=R&B
TTITLE0=Old Skool Funk
TTITLE1=Wrapped Up, Tied Up, Tangled Up
TTITLE2=Lovin' Stuff
TTITLE3=I'm Always Falling In Love
TTITLE4=No Where To Go But Here
TTITLE5=Love's Out There
TTITLE6=Let's Call The Whole Thing Off
TTITLE7=Baby Let Me Kiss You
TTITLE8=2 Women
TTITLE9=Best Friends, Girlfriend
TTITLE10=Put Out The Fire
EXTD=
EXTT0=
EXTT1=
EXTT2=
EXTT3=
EXTT4=
EXTT5=
EXTT6=
EXTT7=
EXTT8=
EXTT9=
EXTT10=
PLAYORDER=
